<svg xmlns="http://www.w3.org/2000/svg" aria-hidden="true" style="position:absolute;width:0;height:0;overflow:hidden">
  <defs>
    <symbol id="icon-arrow_back" viewBox="0 0 32 32">
      <path stroke-width="1.333" d="M16.01 6.249c.114 0 .212.035.322.145a.45.45 0 0 1 .145.332.425.425 0 0 1-.145.324L7.85 15.532h17.88a.451.451 0 0 1 .477.469c0 .16-.046.255-.129.337a.457.457 0 0 1-.348.132H7.85l8.474 8.473c.11.11.147.212.148.335v.001a.4.4 0 0 1-.074.246l-.069.082a.415.415 0 0 1-.323.142.457.457 0 0 1-.341-.151l-9.264-9.264a.542.542 0 0 1-.121-.167v-.001c-.02-.048-.031-.102-.031-.165s.012-.116.031-.163v-.001a.554.554 0 0 1 .121-.167l9.267-9.267a.466.466 0 0 1 .342-.152z"/>
    </symbol>
    <symbol id="icon-arrow_forward" viewBox="0 0 32 32">
      <path stroke-width="1.333" d="M15.993 6.253a.432.432 0 0 1 .259.081l.082.07 9.264 9.264a.542.542 0 0 1 .121.167v.001c.02.048.031.102.031.165s-.012.116-.031.163v.001a.567.567 0 0 1-.121.167l-9.272 9.264c-.122.12-.227.155-.337.155-.108 0-.204-.033-.315-.147l-.007-.007-.069-.081c-.056-.079-.075-.157-.075-.243s.02-.163.075-.242l.069-.081 8.482-8.482H6.269c-.163 0-.259-.047-.34-.128h-.001a.44.44 0 0 1-.128-.341c0-.162.046-.26.128-.341h.001c.081-.081.177-.127.34-.128h17.88l-8.474-8.474a.467.467 0 0 1-.141-.246l-.008-.09a.423.423 0 0 1 .141-.326l.001-.001a.42.42 0 0 1 .324-.142z"/>
    </symbol>
    <symbol id="icon-bookmark" viewBox="0 0 32 32">
      <path d="m16 24.223-6.358 2.72c-.757.326-1.475.265-2.155-.184s-1.02-1.083-1.02-1.905V5.904c0-.616.225-1.149.676-1.601s.982-.678 1.595-.678h14.523c.616 0 1.149.226 1.601.678s.678.985.678 1.601v18.95c0 .821-.341 1.456-1.024 1.905s-1.402.51-2.159.184l-6.358-2.72zm0-2.429 7.262 3.061V5.905H8.739v18.95l7.262-3.061zm0-15.889z"/>
    </symbol>
    <symbol id="icon-chevron_left" viewBox="0 0 32 32">
      <path stroke-width="1.333" d="M18.716 8.865c.134 0 .237.041.341.145s.145.207.145.341-.04.237-.145.341l-6.276 6.276 6.276 6.275c.104.104.133.193.129.301a.492.492 0 0 1-.161.348c-.104.104-.207.146-.341.146s-.237-.042-.341-.146l-6.592-6.591a.743.743 0 0 1-.082-.096l-.039-.07a.415.415 0 0 1-.031-.165c0-.032.002-.063.008-.09l.023-.077a.548.548 0 0 1 .121-.167l6.626-6.625a.447.447 0 0 1 .34-.145z"/>
    </symbol>
    <symbol id="icon-chevron_right" viewBox="0 0 32 32">
      <path stroke-width="1.333" d="M12.516 8.897c.134 0 .237.041.341.145l6.592 6.592a.547.547 0 0 1 .121.165v.001c.02.047.031.1.031.165s-.012.118-.031.165v.001a.547.547 0 0 1-.121.165l-6.625 6.625c-.104.104-.193.133-.301.129a.492.492 0 0 1-.348-.161c-.104-.104-.146-.207-.146-.341s.042-.237.146-.341l6.242-6.242-6.276-6.276c-.104-.104-.133-.192-.129-.299a.491.491 0 0 1 .163-.349.447.447 0 0 1 .34-.145z"/>
    </symbol>
    <symbol id="icon-close" viewBox="0 0 32 32">
      <path stroke-width="1.333" d="M23.466 7.9c.219 0 .355.065.462.172s.172.242.172.461c0 .219-.065.355-.172.462L16.923 16l7.005 7.004c.107.107.172.243.172.462s-.065.355-.172.462-.243.172-.462.172c-.219 0-.355-.065-.462-.172L16 16.923l-7.005 7.005c-.107.107-.243.172-.462.172s-.354-.065-.461-.172c-.107-.107-.172-.243-.172-.462s.065-.355.172-.462L15.076 16 8.072 8.995c-.107-.107-.172-.243-.172-.462s.065-.354.172-.461.242-.172.461-.172c.219 0 .355.065.462.172L16 15.076l7.004-7.004c.107-.107.243-.172.462-.172z"/>
    </symbol>
    <symbol id="icon-communication" viewBox="0 0 32 32">
      <path d="M1.15 21.271v-.569c0-1.243.618-2.059 1.853-2.45s2.329-.586 3.283-.586c.954 0 2.048.195 3.283.584s1.853 1.207 1.853 2.451v.569H1.151zm5.134-5.39c-.725 0-1.345-.259-1.861-.776s-.773-1.14-.773-1.866.258-1.348.775-1.863c.516-.515 1.137-.773 1.862-.773s1.345.259 1.861.776.773 1.139.773 1.864-.258 1.346-.775 1.864a2.537 2.537 0 0 1-1.862.776zm6.96 1.999c-.255 0-.466-.08-.632-.24s-.249-.365-.249-.616c0-.125.083-.342.249-.65.172-.244.309-.5.409-.767s.15-.545.15-.834c0-.289-.05-.575-.15-.858s-.237-.532-.411-.749c-.072-.097-.131-.198-.177-.303s-.069-.216-.069-.333c0-.254.083-.464.25-.629s.377-.248.631-.248c.112 0 .228.018.346.054s.211.098.278.187c.388.405.673.856.853 1.353s.271 1.006.271 1.526c0 .516-.097 1.035-.291 1.556s-.48.968-.856 1.34c-.089.089-.182.146-.278.171s-.204.038-.322.038zm2.539 2.535c-.26 0-.471-.084-.633-.251s-.243-.379-.243-.635c0-.118.022-.228.065-.33s.101-.201.173-.296c.546-.639.951-1.307 1.215-2.005s.395-1.405.395-2.125-.132-1.434-.395-2.144a6.393 6.393 0 0 0-1.216-1.998c-.071-.095-.129-.192-.172-.291s-.065-.211-.065-.335c0-.258.083-.469.25-.633s.377-.246.632-.246c.13 0 .252.03.363.091s.214.141.308.242c.695.8 1.215 1.649 1.558 2.547s.516 1.819.516 2.764c0 .945-.172 1.866-.516 2.764s-.863 1.747-1.558 2.547c-.087.111-.187.194-.299.25s-.238.083-.378.083zm4.796.856v-.569c0-1.244.617-2.061 1.853-2.451s2.329-.584 3.283-.584c.954 0 2.048.195 3.283.586s1.853 1.207 1.853 2.45v.569H20.58zm5.134-5.39c-.725 0-1.345-.259-1.861-.776s-.773-1.14-.773-1.866.258-1.348.775-1.863c.516-.515 1.137-.773 1.862-.773s1.345.259 1.861.776.773 1.139.773 1.864-.258 1.346-.775 1.864a2.537 2.537 0 0 1-1.862.776z"/>
    </symbol>
    <symbol id="icon-edit" viewBox="0 0 32 32">
      <path d="M6.064 25.928h1.475l15.327-15.294-1.459-1.467L6.064 24.469v1.459zm-1.128 2.271a1.102 1.102 0 0 1-1.135-1.135v-2.561c0-.304.062-.601.187-.891s.289-.537.493-.742L22.952 4.424c.183-.188.404-.335.661-.441s.525-.158.803-.158c.255 0 .51.053.765.158s.491.25.707.433l1.73 1.706c.205.216.355.453.449.711s.141.517.141.777-.053.524-.158.79-.25.494-.433.682L9.146 27.52c-.21.204-.458.369-.746.493s-.583.187-.887.187H4.936zM22.14 9.893l-.733-.725 1.459 1.467-.725-.741z"/>
    </symbol>
    <symbol id="icon-Facebook" viewBox="0 0 32 32">
      <path d="M29.333 16.405C29.333 8.996 23.364 2.99 16 2.99S2.667 8.996 2.667 16.405c0 6.696 4.876 12.245 11.25 13.252v-9.374h-3.385v-3.878h3.385V13.45c0-3.362 1.991-5.219 5.036-5.219 1.459 0 2.985.262 2.985.262v3.301h-1.681c-1.656 0-2.173 1.034-2.173 2.095v2.516h3.698l-.591 3.878h-3.107v9.374c6.374-1.006 11.25-6.556 11.25-13.252z"/>
    </symbol>
    <symbol id="icon-Instagram" viewBox="0 0 32 32">
      <path d="M16.006 6.488c3.206 0 3.585.014 4.846.071 1.172.052 1.804.248 2.227.412.558.216.961.478 1.378.895.422.422.679.82.9 1.378.164.422.361 1.059.412 2.226.056 1.266.071 1.645.071 4.847s-.014 3.585-.071 4.847c-.052 1.172-.248 1.804-.412 2.227a3.702 3.702 0 0 1-.895 1.377c-.422.422-.82.679-1.377.9-.422.164-1.06.361-2.227.413-1.266.056-1.645.07-4.847.07s-3.585-.014-4.847-.07c-1.172-.052-1.804-.248-2.226-.413a3.714 3.714 0 0 1-1.378-.895 3.767 3.767 0 0 1-.9-1.378c-.164-.422-.361-1.06-.412-2.226-.056-1.266-.071-1.645-.071-4.847s.014-3.585.071-4.847c.052-1.172.248-1.804.412-2.226.216-.558.478-.961.895-1.378.422-.422.82-.679 1.378-.9.422-.164 1.059-.361 2.226-.412 1.261-.056 1.641-.071 4.847-.071h.001zm0-2.16c-3.258 0-3.665.014-4.945.071-1.275.056-2.151.262-2.91.558a5.847 5.847 0 0 0-2.127 1.387 5.883 5.883 0 0 0-1.387 2.123c-.295.764-.502 1.636-.558 2.91-.056 1.285-.071 1.692-.071 4.949s.014 3.665.071 4.945c.056 1.275.262 2.151.558 2.91a5.86 5.86 0 0 0 1.387 2.127 5.876 5.876 0 0 0 2.123 1.383c.764.295 1.636.502 2.91.558 1.279.056 1.687.071 4.945.071s3.665-.014 4.945-.071c1.275-.056 2.151-.262 2.91-.558.787-.305 1.458-.717 2.123-1.383s1.078-1.335 1.383-2.123c.295-.764.502-1.635.558-2.91.056-1.279.07-1.687.07-4.945s-.014-3.665-.07-4.945c-.056-1.275-.263-2.151-.558-2.91a5.622 5.622 0 0 0-1.373-2.133 5.876 5.876 0 0 0-2.123-1.383c-.764-.295-1.636-.502-2.91-.558-1.284-.061-1.692-.075-4.949-.075l-.001.001z"/>
      <path d="M16.006 10.163a6.164 6.164 0 1 0 6.163 6.163 6.165 6.165 0 0 0-6.163-6.163zm0 10.161a3.998 3.998 0 1 1 0-7.996 3.998 3.998 0 0 1 0 7.996zM23.851 9.919a1.439 1.439 0 1 1-2.877 0 1.439 1.439 0 0 1 2.877 0z"/>
    </symbol>
    <symbol id="icon-keyboard_arrow_down" viewBox="0 0 32 32">
      <path stroke-width="1.333" d="M9.449 12.031c.134 0 .237.041.341.145l6.208 6.244 6.243-6.244c.104-.103.192-.133.299-.129a.491.491 0 0 1 .349.163c.104.104.145.207.145.341s-.041.236-.145.34L16.33 19.45a.527.527 0 0 1-.167.122.415.415 0 0 1-.165.031.499.499 0 0 1-.09-.009l-.077-.022-.07-.04a.681.681 0 0 1-.095-.082l-6.592-6.591a.392.392 0 0 1-.129-.318.507.507 0 0 1 .163-.365.447.447 0 0 1 .34-.145z"/>
    </symbol>
    <symbol id="icon-keyboard_arrow_up" viewBox="0 0 32 32">
      <path stroke-width="1.333" d="M16 11.605c.125 0 .227.038.333.145l6.591 6.592c.109.109.145.208.145.324s-.035.215-.145.324c-.104.104-.207.145-.341.145s-.236-.041-.34-.145l-.001-.001-6.243-6.207-6.241 6.241c-.104.104-.192.133-.299.129a.493.493 0 0 1-.349-.161c-.104-.104-.145-.207-.145-.341s.04-.237.145-.341l6.559-6.559a.438.438 0 0 1 .332-.145z"/>
    </symbol>
    <symbol id="icon-logout" viewBox="0 0 32 32">
      <path d="M6.072 28.199c-.613 0-1.145-.225-1.595-.676s-.676-.982-.676-1.595V6.071c0-.616.225-1.149.676-1.601s.982-.678 1.595-.678h8.807c.321 0 .59.111.808.334s.327.495.327.816c0 .322-.109.59-.327.806s-.487.323-.808.323H6.072v19.857h8.807c.321 0 .59.11.808.329s.327.49.327.812c0 .322-.109.591-.327.806s-.487.323-.808.323H6.072zm17.784-11.063H13.088c-.32 0-.59-.11-.808-.329s-.327-.49-.327-.812c0-.322.109-.591.327-.806s.488-.323.808-.323h10.701l-2.564-2.564c-.227-.228-.334-.495-.323-.8s.13-.571.357-.795c.226-.229.496-.342.81-.34s.585.117.815.344l4.529 4.529c.221.229.332.494.332.797s-.111.568-.332.794l-4.496 4.496c-.222.226-.486.335-.792.327s-.577-.126-.812-.352c-.218-.227-.328-.497-.331-.811s.112-.586.344-.813l2.531-2.539z"/>
    </symbol>
    <symbol id="icon-menu" viewBox="0 0 32 32">
      <path d="M4.936 24.295c-.321 0-.59-.11-.808-.329s-.327-.493-.327-.82c0-.322.109-.591.327-.807s.488-.323.808-.323h22.127c.321 0 .591.11.812.329s.331.49.331.812a1.121 1.121 0 0 1-1.143 1.137H4.936zm0-7.159c-.321 0-.59-.11-.808-.329s-.327-.49-.327-.812c0-.322.109-.591.327-.806s.488-.323.808-.323h22.127c.321 0 .591.11.812.329s.331.49.331.812c0 .322-.11.591-.331.806s-.492.323-.812.323H4.936zm0-7.152c-.321 0-.59-.11-.808-.329s-.327-.493-.327-.82c0-.322.109-.591.327-.806s.488-.323.808-.323h22.127c.321 0 .591.11.812.329s.331.49.331.812a1.117 1.117 0 0 1-1.143 1.138H4.936z"/>
    </symbol>
    <symbol id="icon_luggage" viewBox="0 0 32 32">
      <path d="M6.467 25.762v-15.69c0-.632.221-1.17.663-1.614s.978-.665 1.608-.665h3.341V3.587c0-.325.119-.608.358-.851s.521-.364.846-.364h5.435c.325 0 .607.121.846.364s.358.526.358.851v4.206h3.341c.632 0 1.17.222 1.614.665s.665.981.665 1.614v15.69c0 .63-.222 1.166-.665 1.608s-.981.663-1.614.663v.548c0 .297-.099.546-.298.747s-.448.301-.75.301c-.305 0-.566-.093-.784-.279s-.306-.442-.263-.769v-.548H10.836v.548c0 .297-.099.546-.298.747s-.449.301-.75.301c-.305 0-.566-.093-.785-.279s-.306-.442-.263-.769v-.548c-.63 0-1.166-.221-1.608-.663s-.663-.978-.663-1.608zm7.7-17.969h3.667V4.46h-3.667v3.333zM16 15.778c1.276 0 2.536-.142 3.779-.425s2.404-.763 3.482-1.436v-3.844H8.738v3.846c1.078.673 2.239 1.151 3.483 1.435s2.503.425 3.779.425zm-1.048 2.651v-.43c-1.112-.067-2.191-.246-3.236-.538s-2.038-.722-2.978-1.289v9.59h14.523v-9.598c-.939.567-1.932.997-2.978 1.289s-2.124.474-3.236.546v.43c0 .297-.1.546-.299.747s-.451.301-.754.301-.552-.099-.748-.298-.294-.449-.294-.75z"/>
    </symbol>
    <symbol id="icon-stars" viewBox="0 0 32 32">
      <path d="m21.848 16.962-3.113 5.02c-.178.294-.429.408-.754.341s-.532-.258-.621-.575l-1.092-4.41-10.08 10.031c-.227.232-.492.348-.796.348s-.569-.116-.796-.348c-.226-.227-.34-.492-.34-.796s.113-.569.34-.796l10.047-10.039-4.425-1.092c-.316-.089-.507-.296-.571-.62s.048-.579.337-.762l5.02-3.146-.408-5.869c-.022-.339.118-.586.421-.741s.579-.122.829.1l4.504 3.788 5.461-2.189c.311-.111.58-.053.808.175s.286.497.175.808l-2.222 5.461 3.788 4.512c.222.25.261.526.117.829s-.386.443-.725.421l-5.902-.449zM4.215 7.999c-.122-.116-.183-.253-.183-.411s.061-.297.183-.418l1.629-1.629c.116-.116.253-.175.41-.175s.297.058.419.175l1.588 1.596c.122.122.182.26.182.414s-.061.293-.182.415L6.632 9.595c-.122.122-.26.182-.415.182s-.293-.061-.414-.182L4.215 7.999zm14.434 10.05 2.052-3.304 3.896.292-2.536-2.987 1.468-3.604-3.604 1.46L16.93 7.37l.3 3.896-3.312 2.077 3.796.943.935 3.763zm5.386 9.736-1.629-1.621c-.122-.122-.177-.26-.166-.414s.077-.293.199-.415l1.596-1.588c.116-.122.253-.183.411-.183s.297.061.418.183l1.629 1.621c.116.122.169.26.158.415s-.075.293-.191.414l-1.596 1.588c-.122.122-.26.183-.414.183s-.293-.061-.415-.183z"/>
    </symbol>
    <symbol id="icon-X" viewBox="0 0 32 32">
      <path d="M22.901 5.657h3.68l-8.04 9.037L28 26.991h-7.406l-5.801-7.458-6.637 7.458H4.474l8.6-9.666L4 5.657h7.594l5.243 6.817 6.064-6.817zM21.61 24.824h2.039L10.486 7.709H8.298L21.61 24.824z"/>
    </symbol>
    <symbol id="icon-Youtube" viewBox="0 0 32 32">
      <path d="M28.791 9.604a3.345 3.345 0 0 0-2.35-2.354C24.353 6.677 16 6.667 16 6.667s-8.352-.009-10.441.539a3.416 3.416 0 0 0-2.354 2.371c-.551 2.088-.556 6.419-.556 6.419s-.005 4.352.541 6.419a3.341 3.341 0 0 0 2.351 2.353c2.109.573 10.44.583 10.44.583s8.353.009 10.441-.537a3.356 3.356 0 0 0 2.356-2.35c.552-2.087.556-6.416.556-6.416s.027-4.353-.543-6.441zM13.328 20.007l.007-8 6.943 4.007-6.949 3.993z"/>
    </symbol>
    <symbol id="icon-Logo" viewBox="0 0 139 32">
      <path fill="#f6cc90" style="fill: var(--color1, #f6cc90)" d="M4.656 25.409c0-0.013 2.375-2.029 7.977-2.029 5.441 0 7.977 2.016 7.977 2.029h-15.954z"></path>
      <path fill="#f0c17f" style="fill: var(--color2, #f0c17f)" d="M12.633 23.38c-0.347 0-0.682 0.008-1.005 0.022 4.767 0.22 6.998 1.995 6.998 2.007h1.985c0-0.013-2.536-2.029-7.977-2.029z"></path>
      <path fill="#c5e866" style="fill: var(--color3, #c5e866)" d="M16.255 9.34c-0.649 1.883-2.398 2.207-2.398 2.207s-1.159-1.388-0.527-3.221c0.666-1.932 2.415-2.256 2.415-2.256s1.167 1.363 0.51 3.27z"></path>
      <path fill="#b2d94b" style="fill: var(--color4, #b2d94b)" d="M15.746 6.069c0 0-0.462 0.086-1.002 0.431 0.297 0.547 0.664 1.573 0.228 2.839-0.314 0.911-0.885 1.457-1.392 1.778 0.149 0.274 0.278 0.429 0.278 0.429s1.749-0.324 2.398-2.207c0.657-1.907-0.51-3.27-0.51-3.27z"></path>
      <path fill="#9cc042" style="fill: var(--color5, #9cc042)" d="M14.512 18.191c-1.066 0.152-1.851-0.066-1.851-0.066s-0.679-2.724 1.443-4.852c2.235-2.242 4.893-1.504 4.893-1.504s0.583 2.223-0.962 4.29z"></path>
      <path fill="#85aa18" style="fill: var(--color6, #85aa18)" d="M18.996 11.768c0 0-0.713-0.198-1.711-0.077 0.27 0.034 0.427 0.077 0.427 0.077s0.583 2.223-0.962 4.29l-3.523 2.133c-0.039 0.006-0.078 0.010-0.116 0.015 0.332 0.041 0.825 0.067 1.4-0.015l3.523-2.133c1.546-2.066 0.962-4.29 0.962-4.29z"></path>
      <path fill="#c5e866" style="fill: var(--color3, #c5e866)" d="M10.117 16.762c1.893 1.492 1.57 3.63 1.57 3.63s-2.043 0.782-3.887-0.671c-1.942-1.53-1.619-3.668-1.619-3.668s2.019-0.801 3.936 0.71z"></path>
      <path fill="#9cc042" style="fill: var(--color5, #9cc042)" d="M7.947 13.686c1.905 2.428 4.633 2.010 4.633 2.010s0.995-2.625-0.861-4.989c-1.955-2.491-4.682-2.073-4.682-2.073s-1.020 2.593 0.91 5.052z"></path>
      <path fill="#c5e866" style="fill: var(--color3, #c5e866)" d="M17.542 19.291c-1.635 1.131-3.235 0.352-3.235 0.352s-0.114-1.807 1.479-2.908c1.677-1.16 3.278-0.381 3.278-0.381s0.135 1.792-1.521 2.937z"></path>
      <path fill="#b2d94b" style="fill: var(--color4, #b2d94b)" d="M19.063 16.354c0 0-0.834-0.406-1.929-0.195 0.399 0.076 0.645 0.195 0.645 0.195s0.135 1.792-1.521 2.937c-0.443 0.306-0.884 0.472-1.291 0.552 0.617 0.117 1.59 0.129 2.575-0.552 1.656-1.145 1.521-2.937 1.521-2.937z"></path>
      <path fill="#060606" style="fill: var(--color7, #060606)" d="M20.658 25.080c-0.577-0.407-1.235-0.71-1.892-0.962-1.185-0.456-3.157-0.997-5.887-1.028 0.044-0.378 0.149-0.92 0.395-1.524 0.244-0.6 0.575-1.141 0.99-1.622 0.195 0.080 0.696 0.256 1.351 0.256 0.606 0 1.344-0.151 2.092-0.668 1.773-1.226 1.652-3.119 1.646-3.199-0.008-0.103-0.070-0.195-0.163-0.24-0.027-0.013-0.279-0.132-0.678-0.213 0.325-0.51 0.564-1.065 0.711-1.653 0.091-0.365-0.475-0.507-0.566-0.142-0.155 0.62-0.424 1.198-0.8 1.72-0.632-0.015-1.425 0.128-2.238 0.69-0.606 0.419-0.984 0.929-1.22 1.416-0.512 0.065-0.952 0.041-1.251 0.005 0.593-0.8 2.138-2.738 3.878-3.751 0.325-0.189 0.032-0.694-0.294-0.505-1.693 0.985-3.167 2.739-3.877 3.67-0.041-0.908 0.117-2.511 1.454-3.852 0.872-0.874 1.909-1.381 3.083-1.506 0.615-0.065 1.109-0.003 1.355 0.041 0.026 0.152 0.058 0.398 0.063 0.707 0.007 0.373 0.59 0.368 0.584-0.010-0.011-0.606-0.112-1-0.117-1.016-0.026-0.101-0.104-0.179-0.204-0.207-0.029-0.008-0.729-0.198-1.716-0.098-0.909 0.092-2.247 0.458-3.462 1.677-0.101 0.102-0.196 0.205-0.286 0.309 0.164-0.505 0.343-1.050 0.526-1.599 0.529-0.161 1.834-0.714 2.395-2.34 0.704-2.042-0.512-3.494-0.564-3.555-0.068-0.079-0.172-0.116-0.275-0.097-0.078 0.014-1.924 0.379-2.638 2.447-0.592 1.717 0.252 3.060 0.51 3.414-0.17 0.511-0.336 1.018-0.49 1.49-0.118-0.79-0.426-1.716-1.126-2.607-1.063-1.354-2.349-1.876-3.24-2.075-0.969-0.216-1.686-0.111-1.716-0.106-0.103 0.016-0.189 0.085-0.227 0.182-0.008 0.021-0.202 0.52-0.268 1.284-0.032 0.375 0.549 0.425 0.582 0.050 0.037-0.431 0.12-0.767 0.175-0.955 0.25-0.015 0.748-0.018 1.351 0.12 1.152 0.263 2.122 0.889 2.885 1.861 0.723 0.921 1.081 1.988 1.065 3.174-0.005 0.386-0.052 0.723-0.103 0.982-1.155-2.15-2.789-3.802-2.861-3.874-0.266-0.267-0.679 0.145-0.413 0.412 0.017 0.017 1.702 1.721 2.819 3.849-0.261-0.006-0.599-0.035-0.979-0.119-1.143-0.253-2.098-0.86-2.84-1.806-0.516-0.658-0.859-1.389-1.016-2.171-0.074-0.369-0.647-0.254-0.572 0.116 0.176 0.872 0.556 1.685 1.13 2.416 1.038 1.323 2.312 1.829 3.199 2.021 0.442 0.096 0.897 0.141 1.349 0.126v4.914c-0.088-0.19-0.183-0.37-0.283-0.54 0.040-0.345 0.184-2.383-1.684-3.855-2.026-1.597-4.135-0.787-4.224-0.752-0.096 0.038-0.165 0.125-0.181 0.228-0.014 0.094-0.325 2.324 1.727 3.941 0.953 0.751 1.948 0.947 2.728 0.947 0.506 0 0.921-0.082 1.175-0.149 0.406 0.71 0.646 1.493 0.719 2.344-1.51 0.026-2.919 0.199-4.193 0.517-0.365 0.091-0.224 0.657 0.142 0.566 1.235-0.309 2.604-0.476 4.075-0.5v0.671c0 0.376 0.584 0.376 0.584 0v-0.673c3.442 0.034 5.642 0.877 6.736 1.444h-13.935c0.284-0.151 0.647-0.322 1.095-0.492 0.352-0.134 0.144-0.68-0.207-0.546-0.727 0.276-1.245 0.557-1.551 0.744-0.622 0.379-0.622 0.47-0.622 0.586 0 0.161 0.131 0.292 0.292 0.292h15.954c0.444 0 0.269-0.466 0.049-0.621zM15.951 16.975c1.231-0.851 2.401-0.571 2.822-0.423-0.016 0.451-0.179 1.658-1.397 2.499-1.104 0.763-2.178 0.58-2.668 0.431 0.575-0.538 1.275-0.985 2.096-1.337 0.346-0.148 0.116-0.685-0.23-0.536-0.741 0.317-1.352 0.695-1.856 1.1 0.152-0.542 0.489-1.219 1.233-1.733zM13.749 18.536c0.131 0 0.27-0.005 0.416-0.015-0.096 0.333-0.133 0.627-0.147 0.833-0.553 0.587-0.923 1.192-1.17 1.728v-2.62c0.205 0.035 0.517 0.074 0.901 0.074zM13.606 8.42c0.489-1.418 1.596-1.887 2.022-2.019 0.253 0.373 0.834 1.442 0.351 2.844-0.362 1.049-1.088 1.567-1.602 1.812 0.379-1.12 0.753-2.181 1.025-2.847 0.142-0.349-0.398-0.569-0.54-0.22-0.283 0.695-0.67 1.79-1.057 2.936-0.265-0.508-0.574-1.417-0.199-2.505zM7.981 19.492c-0.744-0.587-1.225-1.333-1.428-2.219-0.1-0.434-0.105-0.799-0.096-1.002 0.497-0.139 2.023-0.428 3.48 0.721 0.724 0.57 1.19 1.305 1.385 2.184 0.028 0.128 0.049 0.249 0.063 0.363-0.194-0.234-0.392-0.441-0.583-0.619-1.007-0.945-2.006-1.34-2.048-1.357-0.351-0.137-0.563 0.407-0.212 0.544 0.009 0.004 0.935 0.37 1.861 1.238 0.296 0.277 0.556 0.571 0.782 0.881-0.647 0.132-1.976 0.233-3.203-0.734z"></path>
      <path fill="#000" style="fill: var(--color8, #000)" d="M27.077 21.072v-11.388h8.549v11.388h-1.42v-10.128h-5.694v10.128h-1.435zM45.825 16.782c0 0.712-0.096 1.345-0.287 1.898-0.181 0.542-0.447 1.005-0.797 1.388-0.34 0.383-0.76 0.675-1.26 0.877-0.489 0.191-1.037 0.287-1.643 0.287-0.564 0-1.085-0.096-1.563-0.287-0.478-0.202-0.893-0.494-1.244-0.877s-0.627-0.845-0.829-1.388c-0.191-0.553-0.287-1.186-0.287-1.898 0-0.946 0.159-1.744 0.478-2.393 0.319-0.659 0.776-1.159 1.372-1.499 0.595-0.351 1.303-0.526 2.121-0.526 0.776 0 1.457 0.175 2.042 0.526 0.595 0.34 1.058 0.84 1.388 1.499 0.34 0.649 0.51 1.446 0.51 2.393zM39.365 16.782c0 0.67 0.085 1.255 0.255 1.755 0.181 0.489 0.457 0.867 0.829 1.132s0.845 0.399 1.42 0.399 1.047-0.133 1.42-0.399c0.372-0.266 0.643-0.643 0.813-1.132 0.181-0.5 0.271-1.085 0.271-1.755 0-0.681-0.090-1.26-0.271-1.739s-0.457-0.845-0.829-1.101c-0.362-0.266-0.835-0.399-1.42-0.399-0.872 0-1.505 0.287-1.898 0.861s-0.59 1.366-0.59 2.377zM54.239 12.523v7.369h1.244v4.147h-1.356v-2.967h-5.949v2.967h-1.34v-4.147h0.686c0.489-0.681 0.893-1.42 1.212-2.217 0.33-0.808 0.574-1.648 0.734-2.52 0.17-0.883 0.261-1.76 0.271-2.632h4.498zM50.985 13.624c-0.043 0.723-0.154 1.473-0.335 2.249-0.181 0.766-0.415 1.499-0.702 2.201-0.276 0.702-0.601 1.308-0.973 1.818h3.908v-6.268h-1.898zM64.431 16.782c0 0.712-0.096 1.345-0.287 1.898-0.181 0.542-0.447 1.005-0.797 1.388-0.34 0.383-0.76 0.675-1.26 0.877-0.489 0.191-1.037 0.287-1.643 0.287-0.564 0-1.085-0.096-1.563-0.287-0.478-0.202-0.893-0.494-1.244-0.877s-0.627-0.845-0.829-1.388c-0.191-0.553-0.287-1.186-0.287-1.898 0-0.946 0.16-1.744 0.478-2.393 0.319-0.659 0.776-1.159 1.372-1.499 0.595-0.351 1.303-0.526 2.121-0.526 0.776 0 1.457 0.175 2.042 0.526 0.595 0.34 1.058 0.84 1.388 1.499 0.34 0.649 0.51 1.446 0.51 2.393zM57.972 16.782c0 0.67 0.085 1.255 0.255 1.755 0.181 0.489 0.457 0.867 0.829 1.132s0.845 0.399 1.42 0.399 1.047-0.133 1.42-0.399c0.372-0.266 0.643-0.643 0.813-1.132 0.181-0.5 0.271-1.085 0.271-1.755 0-0.681-0.090-1.26-0.271-1.739s-0.457-0.845-0.829-1.101c-0.361-0.266-0.835-0.399-1.42-0.399-0.872 0-1.505 0.287-1.898 0.861s-0.59 1.366-0.59 2.377zM70.564 12.364c1.053 0 1.898 0.367 2.536 1.101 0.649 0.734 0.973 1.84 0.973 3.318 0 0.968-0.149 1.786-0.447 2.456-0.287 0.659-0.696 1.159-1.228 1.499-0.521 0.33-1.138 0.494-1.85 0.494-0.436 0-0.824-0.058-1.164-0.175s-0.633-0.266-0.877-0.447c-0.234-0.191-0.436-0.399-0.606-0.622h-0.096c0.021 0.181 0.043 0.409 0.064 0.686s0.032 0.516 0.032 0.718v3.509h-1.404v-12.377h1.148l0.191 1.164h0.064c0.17-0.245 0.372-0.468 0.606-0.67 0.245-0.202 0.532-0.362 0.861-0.479 0.34-0.117 0.739-0.175 1.196-0.175zM70.309 13.544c-0.574 0-1.037 0.112-1.388 0.335-0.351 0.213-0.606 0.537-0.766 0.973s-0.245 0.989-0.255 1.659v0.271c0 0.702 0.074 1.297 0.223 1.786s0.399 0.861 0.75 1.117c0.362 0.255 0.851 0.383 1.467 0.383 0.521 0 0.946-0.144 1.276-0.431 0.34-0.287 0.59-0.675 0.75-1.164 0.17-0.5 0.255-1.069 0.255-1.707 0-0.978-0.191-1.76-0.574-2.345-0.372-0.585-0.952-0.877-1.739-0.877zM83.583 16.782c0 0.712-0.096 1.345-0.287 1.898-0.181 0.542-0.447 1.005-0.797 1.388-0.34 0.383-0.76 0.675-1.26 0.877-0.489 0.191-1.037 0.287-1.643 0.287-0.564 0-1.085-0.096-1.563-0.287-0.479-0.202-0.893-0.494-1.244-0.877s-0.627-0.845-0.829-1.388c-0.191-0.553-0.287-1.186-0.287-1.898 0-0.946 0.159-1.744 0.478-2.393 0.319-0.659 0.776-1.159 1.372-1.499 0.595-0.351 1.303-0.526 2.121-0.526 0.776 0 1.457 0.175 2.042 0.526 0.595 0.34 1.058 0.84 1.388 1.499 0.34 0.649 0.51 1.446 0.51 2.393zM77.123 16.782c0 0.67 0.085 1.255 0.255 1.755 0.181 0.489 0.457 0.867 0.829 1.132s0.845 0.399 1.42 0.399c0.574 0 1.047-0.133 1.42-0.399s0.643-0.643 0.813-1.132c0.181-0.5 0.271-1.085 0.271-1.755 0-0.681-0.090-1.26-0.271-1.739s-0.457-0.845-0.829-1.101c-0.362-0.266-0.835-0.399-1.42-0.399-0.872 0-1.505 0.287-1.898 0.861s-0.59 1.366-0.59 2.377zM95.592 12.523l-3.524 4.147 3.828 4.402h-1.595l-3.7-4.338v4.338h-1.308v-4.338l-3.701 4.338h-1.595l3.828-4.402-3.525-4.147h1.531l3.462 4.147v-4.147h1.308v4.147l3.477-4.147h1.515zM98.543 12.523v3.557h4.642v-3.557h1.404v8.549h-1.404v-3.812h-4.642v3.812h-1.404v-8.549h1.404zM108.46 17.739c0 0.096-0.005 0.234-0.016 0.415 0 0.17-0.005 0.356-0.016 0.558-0.011 0.191-0.021 0.378-0.032 0.558-0.011 0.17-0.021 0.308-0.032 0.415l4.578-7.162h1.723v8.549h-1.308v-5.040c0-0.17 0-0.393 0-0.67 0.011-0.276 0.021-0.548 0.032-0.813 0.011-0.277 0.021-0.484 0.032-0.622l-4.546 7.146h-1.739v-8.549h1.324v5.216zM122.282 12.523h1.532l-3.653 4.115 3.956 4.434h-1.628l-3.86-4.338v4.338h-1.404v-8.549h1.404v4.147l3.652-4.147zM126.832 17.739c0 0.096-0.005 0.234-0.016 0.415 0 0.17-0.005 0.356-0.016 0.558-0.011 0.191-0.020 0.378-0.031 0.558-0.011 0.17-0.021 0.308-0.032 0.415l4.578-7.162h1.723v8.549h-1.308v-5.040c0-0.17 0-0.393 0-0.67 0.011-0.276 0.021-0.548 0.032-0.813 0.011-0.277 0.021-0.484 0.032-0.622l-4.546 7.146h-1.739v-8.549h1.324v5.216z"></path>
    </symbol>
    <symbol id="icon-eye-blocked" viewBox="0 0 32 32">
    <path d="M29.561 0.439c-0.271-0.271-0.646-0.439-1.061-0.439s-0.789 0.168-1.061 0.439l-6.318 6.318c-1.529-0.48-3.287-0.757-5.11-0.757-0.004 0-0.008 0-0.013 0h0.001c-6.979 0-13.028 4.064-16 10 1.318 2.599 3.143 4.765 5.361 6.438l0.046 0.034-4.968 4.968c-0.271 0.271-0.439 0.646-0.439 1.061 0 0.829 0.672 1.5 1.5 1.5 0.414 0 0.789-0.168 1.061-0.44l27-27c0.271-0.271 0.439-0.646 0.439-1.060s-0.168-0.789-0.439-1.060v0zM13 10c1.312 0 2.427 0.842 2.835 2.016l0.006 0.021-3.804 3.804c-1.194-0.414-2.036-1.529-2.036-2.841 0-1.657 1.343-3 2.999-3h0zM3.441 16c1.291-2.022 2.982-3.677 4.974-4.887l0.067-0.038c-0.305 0.813-0.482 1.752-0.482 2.732 0 0.002 0 0.003 0 0.005v-0c0 1.715 0.54 3.304 1.459 4.607l-1.904 1.904c-1.647-1.168-3.018-2.606-4.077-4.262l-0.037-0.061zM24 13.813c0-0.849-0.133-1.667-0.378-2.434l-10.056 10.056c0.728 0.241 1.565 0.38 2.435 0.38 4.418 0 8-3.582 8-8 0-0.001 0-0.001 0-0.002v0z"></path>
    <path d="M25.938 9.062l-2.168 2.168 0.118 0.074c1.894 1.223 3.457 2.794 4.633 4.636l0.037 0.061c-1.214 1.902-2.776 3.474-4.61 4.661l-0.060 0.036c-2.231 1.445-4.958 2.305-7.885 2.305-1.266 0-2.495-0.161-3.666-0.463l0.102 0.022-2.403 2.403c1.77 0.656 3.814 1.036 5.947 1.036 0.006 0 0.012 0 0.018 0h-0.001c6.978 0 13.027-4.064 16-10-1.438-2.835-3.493-5.171-6-6.898l-0.062-0.040z"></path>
    </symbol>
    <symbol id="icon-eye" viewBox="0 0 32 32">
    <path d="M16 6c-6.979 0-13.028 4.064-16 10 2.972 5.936 9.021 10 16 10s13.027-4.064 16-10c-2.972-5.936-9.021-10-16-10zM23.889 11.303c1.894 1.223 3.457 2.794 4.633 4.636l0.037 0.061c-1.214 1.902-2.776 3.474-4.61 4.661l-0.060 0.036c-2.362 1.507-5.090 2.303-7.889 2.303s-5.527-0.796-7.889-2.303c-1.894-1.223-3.457-2.794-4.633-4.636l-0.037-0.061c1.291-2.022 2.982-3.677 4.974-4.887l0.067-0.038c-0.305 0.813-0.482 1.754-0.482 2.735 0 4.418 3.582 8 8 8s8-3.582 8-8c0-0.981-0.177-1.921-0.5-2.79l0.018 0.055c0.124 0.074 0.248 0.15 0.371 0.228zM16 13c0 1.657-1.343 3-3 3s-3-1.343-3-3v0c0-1.657 1.343-3 3-3s3 1.343 3 3v0z"></path>
   </symbol>

  </defs>
</svg>
